<svg id="icon" xmlns="http://www.w3.org/2000/svg" viewBox="0 0 260 260"><title>favicon</title><g id="border"><rect width="260" height="260" fill="#fff"/></g><g id="dash"><path d="M52,208l1.49-2c1-1.29,2.41-3.22,4.3-5.61,3.74-4.79,9.2-11.52,15.94-19.4s14.77-16.92,23.57-26.4c2.19-2.38,4.45-4.77,6.74-7.18s4.6-4.87,7-7.3c4.7-4.9,9.56-9.79,14.41-14.69s9.78-9.72,14.69-14.41q3.65-3.55,7.29-7c2.42-2.28,4.8-4.55,7.18-6.74,4.73-4.41,9.37-8.61,13.79-12.56s8.66-7.64,12.6-11c7.88-6.74,14.62-12.19,19.41-15.93,2.38-1.88,4.32-3.3,5.61-4.29L208,52l-1.49,2c-1,1.29-2.41,3.23-4.29,5.61C198.48,64.42,193,71.15,186.29,79c-3.37,3.94-7.06,8.17-11,12.6s-8.16,9.06-12.56,13.79c-2.18,2.39-4.45,4.76-6.74,7.18s-4.6,4.86-7,7.29c-4.7,4.9-9.56,9.79-14.41,14.69S124.8,144.3,119.9,149c-2.43,2.37-4.87,4.69-7.3,7s-4.8,4.55-7.18,6.74c-9.48,8.8-18.51,16.83-26.4,23.57s-14.62,12.2-19.4,15.94c-2.38,1.88-4.32,3.3-5.61,4.3Z"/></g><text transform="translate(24.1 105.04)" font-size="120" font-family="Montserrat" font-weight="700">B</text><text transform="translate(151.72 225.04)" font-size="120" font-family="Montserrat" font-weight="700">S</text></svg>