<?xml version="1.0" encoding="UTF-8"?>
<svg width="256px" height="256px" viewBox="0 0 256 256" version="1.1" xmlns="http://www.w3.org/2000/svg" xmlns:xlink="http://www.w3.org/1999/xlink">
    <!-- Generator: Sketch 54.1 (76490) - https://sketchapp.com -->
    <title>favicon</title>
    <desc>Created with Sketch.</desc>
    <g id="Page-1" stroke="none" stroke-width="1" fill="none" fill-rule="evenodd">
        <polygon id="Background" fill="#FFFFFF" fill-rule="nonzero" points="0 0 256 0 256 256 0 256"></polygon>
        <path d="M196.39,235.53 C174.29,235.53 160.01,224.99 153.04,211.22 L172.42,200 C177.52,208.33 184.15,214.45 195.88,214.45 C205.74,214.45 212.03,209.52 212.03,202.72 C212.03,194.56 205.57,191.67 194.69,186.91 L188.74,184.36 C171.57,177.05 160.18,167.87 160.18,148.49 C160.18,130.64 173.78,117.04 195.03,117.04 C210.16,117.04 221.04,122.31 228.86,136.08 L210.33,147.98 C206.25,140.67 201.83,137.78 195.03,137.78 C188.06,137.78 183.64,142.2 183.64,147.98 C183.64,155.12 188.06,158.01 198.26,162.43 L204.21,164.98 C224.44,173.65 235.83,182.49 235.83,202.38 C235.83,223.8 219,235.53 196.39,235.53 Z" id="S" fill="#111517" fill-rule="nonzero"></path>
        <path d="M67.07,234 L67.07,118.4 L111.78,118.4 C133.37,118.4 145.44,132 145.44,148.32 C145.44,159.03 139.15,166.34 129.12,169.57 C144.93,173.31 152.58,183.85 152.58,198.3 C152.58,218.87 137.96,234 113.82,234 L67.07,234 Z M90.87,161.07 L109.23,161.07 C116.88,161.07 121.98,156.82 121.98,150.19 C121.98,143.56 117.73,139.31 110.42,139.31 L90.87,139.31 L90.87,161.07 Z M90.87,213.09 L112.8,213.09 C122.49,213.09 128.61,206.63 128.61,197.11 C128.61,187.76 122.32,181.3 111.44,181.3 L90.87,181.3 L90.87,213.09 Z" id="B" fill="#111517" fill-rule="nonzero"></path>
    </g>
</svg>